<?xml version="1.0" encoding="UTF-8"?>
<svg version="1.1" xmlns="http://www.w3.org/2000/svg" width="512" height="512">
<path d="M0 0 C3.88446678 2.58964452 6.69907021 5.64814041 8.8125 9.875 C8.8125 16.805 8.8125 23.735 8.8125 30.875 C57.9825 30.875 107.1525 30.875 157.8125 30.875 C157.8125 24.275 157.8125 17.675 157.8125 10.875 C160.79587825 4.90824351 162.48993214 2.62371993 168.1875 -0.375 C174.14674663 -2.07764189 178.68444547 -1.30556361 184.015625 1.59765625 C187.70370089 4.21939715 189.41560947 7.6843284 190.8125 11.875 C190.8931622 13.35623547 190.92011193 14.84082204 190.91015625 16.32421875 C190.90693359 17.17177734 190.90371094 18.01933594 190.90039062 18.89257812 C190.89201172 19.77365234 190.88363281 20.65472656 190.875 21.5625 C190.87048828 22.45517578 190.86597656 23.34785156 190.86132812 24.26757812 C190.84954983 26.47011987 190.83310164 28.67252599 190.8125 30.875 C191.57691406 30.85928955 192.34132813 30.8435791 193.12890625 30.82739258 C221.70821921 30.3179689 246.02558636 32.82763106 267.953125 52.98828125 C283.8698715 69.13909755 292.00577389 89.20124067 291.92602539 111.74560547 C291.92617142 112.82912796 291.92631744 113.91265045 291.9264679 115.02900696 C291.92577284 118.60008771 291.91799947 122.17111589 291.91015625 125.7421875 C291.90829063 128.22225923 291.9068674 130.70233133 291.90586853 133.18240356 C291.90205474 139.70240297 291.89223414 146.22238002 291.88116455 152.74237061 C291.87038405 159.39855528 291.86636567 166.05474647 291.86132812 172.7109375 C291.85061087 185.76563453 291.83374096 198.82031607 291.8125 211.875 C288.30672479 210.16574691 285.09787931 208.16820267 281.8125 206.0625 C262.20095015 193.82017216 239.38882153 189.86403869 216.80078125 194.8359375 C196.07687814 199.93206229 177.21509127 212.762504 165.8125 230.875 C153.73258031 251.68739176 148.83485262 275.13203082 154.83349609 298.80615234 C158.80766614 312.63440483 166.67011845 324.90414213 175.8125 335.875 C172.4980502 338.57059382 169.11672498 341.10230382 165.625 343.5625 C143.77360338 359.43844768 123.45322719 384.43670048 118.8125 411.875 C117.64202224 423.2923835 119.0756111 433.03952294 122.8125 443.875 C123.15545034 445.20589217 123.49071105 446.53883356 123.8125 447.875 C100.76744061 447.96869942 77.72241292 448.03910421 54.67720127 448.08224869 C43.97540965 448.10281942 33.27373683 448.13083436 22.57202148 448.17675781 C13.23764792 448.21679439 3.90336044 448.24247264 -5.43109661 448.25135398 C-10.36751254 448.2565404 -15.3036823 448.26861423 -20.24001884 448.29792023 C-24.89970662 448.32535599 -29.55905015 448.33338899 -34.21881104 448.32743073 C-35.91616254 448.32851852 -37.61352727 448.33630293 -39.31080818 448.3518219 C-53.53500323 448.47534486 -67.97922557 447.02912634 -80.6875 440.0625 C-81.34347168 439.71920654 -81.99944336 439.37591309 -82.67529297 439.0222168 C-87.96926306 436.1747919 -92.6483779 432.81609521 -97.1875 428.875 C-98.7034375 427.7303125 -98.7034375 427.7303125 -100.25 426.5625 C-115.55298206 412.56189939 -124.10048385 392.64751252 -125.35736036 372.09781456 C-125.64121111 364.2126234 -125.59615924 356.32460137 -125.57568359 348.43554688 C-125.57975525 345.78921949 -125.58499336 343.14291719 -125.59161377 340.49659729 C-125.60486854 334.08983102 -125.60211055 327.68317091 -125.59337585 321.27640069 C-125.58656689 316.06381056 -125.58569636 310.85124993 -125.5889473 305.63865662 C-125.589407 304.89332113 -125.58986669 304.14798563 -125.59034032 303.38006422 C-125.59129962 301.86535346 -125.59227226 300.3506427 -125.5932581 298.83593196 C-125.6017878 284.67306221 -125.59201602 270.51025097 -125.575857 256.34739083 C-125.56245602 244.22717009 -125.5647848 232.10703559 -125.57861328 219.98681641 C-125.59471205 205.87040367 -125.60096405 191.75404204 -125.59177649 177.6376214 C-125.59082097 176.12886207 -125.58987785 174.62010273 -125.5889473 173.11134338 C-125.58848447 172.3692407 -125.58802164 171.62713801 -125.58754479 170.86254737 C-125.58496776 165.66359624 -125.58929794 160.46467786 -125.59638596 155.26573181 C-125.60484912 148.91937914 -125.60242064 142.5731376 -125.58654372 136.22679746 C-125.5787251 132.99635702 -125.57710672 129.76613669 -125.58549118 126.53569221 C-125.6521559 98.22628067 -121.52602163 74.96420338 -101.5 53.625 C-79.20812058 32.40120136 -52.41506217 30.29720452 -23.1875 30.875 C-23.2189209 29.96790283 -23.2189209 29.96790283 -23.25097656 29.04248047 C-23.33458945 26.27849229 -23.38630054 23.51477087 -23.4375 20.75 C-23.47101563 19.79867187 -23.50453125 18.84734375 -23.5390625 17.8671875 C-23.62075981 11.98498093 -23.21161425 8.50016593 -19.1875 3.875 C-13.37010796 -1.37484159 -7.3959011 -2.61031804 0 0 Z M-23.1875 31.875 C-23.23353511 38.42221567 -23.27332433 44.96886444 -23.29736328 51.51611328 C-23.30738997 53.74106759 -23.32101472 55.96600883 -23.33837891 58.19091797 C-23.36277392 61.39814491 -23.37401671 64.60519685 -23.3828125 67.8125 C-23.39313507 68.79927734 -23.40345764 69.78605469 -23.41409302 70.80273438 C-23.41518302 77.58809075 -23.11419621 83.77852395 -19.4375 89.6875 C-15.62897041 93.39023711 -12.53321933 94.72547563 -7.25 95.3125 C-2.83087234 95.11815978 0.41037805 93.67268404 3.8125 90.875 C9.54322084 83.93781162 8.95445764 76.56632209 8.91015625 68.0078125 C8.9087413 66.97308807 8.90732635 65.93836365 8.90586853 64.87228394 C8.90029039 61.58149268 8.88774188 58.29077054 8.875 55 C8.86998218 52.76302182 8.86541976 50.52604257 8.86132812 48.2890625 C8.85118087 42.81766056 8.83160111 37.34640726 8.8125 31.875 C-1.7475 31.875 -12.3075 31.875 -23.1875 31.875 Z M158.8125 31.875 C158.72053433 39.15306099 158.64093184 46.42909573 158.59277344 53.70727539 C158.57269229 56.18162885 158.54542177 58.65593505 158.51074219 61.13012695 C158.46207222 64.69233888 158.43949546 68.25392181 158.421875 71.81640625 C158.40122986 72.91771378 158.38058472 74.0190213 158.35931396 75.15370178 C158.35743232 81.63431022 158.88384107 85.6386992 162.8125 90.875 C167.09217813 94.43327554 171.11884688 95.53559259 176.671875 95.26171875 C181.32249133 94.42155266 184.05929254 91.70963529 187.125 88.3125 C189.59554455 84.74393565 189.93646959 82.08268222 189.92602539 77.8527832 C189.92594986 76.83195145 189.92587433 75.81111969 189.92579651 74.75935364 C189.92063522 73.65927475 189.91547394 72.55919586 189.91015625 71.42578125 C189.9087413 70.2980278 189.90732635 69.17027435 189.90586853 68.00834656 C189.9002647 64.40137088 189.88771153 60.79445696 189.875 57.1875 C189.86998549 54.74414152 189.8654225 52.30078207 189.86132812 49.85742188 C189.85114433 43.86323824 189.83156953 37.86918836 189.8125 31.875 C179.5825 31.875 169.3525 31.875 158.8125 31.875 Z M-36.625 177.5 C-38.74258307 182.07397943 -38.86158461 185.91506877 -38.1875 190.875 C-36.34730989 195.47547527 -33.07177517 197.96179362 -29.1875 200.875 C-25.73055177 202.02731608 -23.01222483 202.02323523 -19.36450195 202.05200195 C-18.32973473 202.06185875 -18.32973473 202.06185875 -17.27406311 202.07191467 C-14.99130132 202.09162151 -12.70860533 202.10330624 -10.42578125 202.11328125 C-9.64417318 202.11735678 -8.86256512 202.1214323 -8.05727196 202.12563133 C-3.91782268 202.14648395 0.22159356 202.16078744 4.36108398 202.17016602 C8.62362017 202.18121069 12.88563148 202.21558996 17.1479826 202.25533772 C20.43639554 202.2815664 23.7246848 202.28986351 27.01319313 202.29344749 C28.58358098 202.2982997 30.15396382 202.30987458 31.72424889 202.32848549 C43.37863159 202.5389085 43.37863159 202.5389085 53.8125 197.875 C57.38041534 193.75817461 58.71858122 190.32228906 58.8125 184.875 C57.58216581 178.67600852 54.95390399 175.40971524 49.8125 171.875 C46.29966935 170.70405645 43.49821818 170.72636557 39.79003906 170.69799805 C39.07908081 170.69142685 38.36812256 170.68485565 37.63562012 170.67808533 C35.28312062 170.65837819 32.93068493 170.64669475 30.578125 170.63671875 C29.77320366 170.63264322 28.96828232 170.6285677 28.13896942 170.62436867 C23.87747963 170.60351765 19.61602194 170.58921249 15.35449219 170.57983398 C10.96182867 170.5687793 6.56967308 170.53438788 2.17718887 170.49466228 C-1.20811885 170.46846441 -4.59330619 170.4601393 -7.97870636 170.45655251 C-9.59736812 170.4516937 -11.21602475 170.44009984 -12.8345871 170.42151451 C-15.10594939 170.39705717 -17.37600615 170.39809947 -19.64746094 170.4050293 C-20.93747009 170.39916306 -22.22747925 170.39329681 -23.55657959 170.38725281 C-29.11280057 171.13362862 -32.77219234 173.35082252 -36.625 177.5 Z M-37.1875 263.875 C-39.04356957 269.44320872 -39.09902916 274.90609702 -36.625 280.25 C-32.26139825 284.94926342 -28.3764149 287.05972393 -22.02697754 287.38293457 C-20.00054216 287.40656807 -17.9737773 287.40836813 -15.94726562 287.39257812 C-14.2801075 287.40309204 -14.2801075 287.40309204 -12.57926941 287.41381836 C-8.91717304 287.43137699 -5.2558538 287.41978233 -1.59375 287.40625 C0.95780587 287.4089455 3.50936073 287.41282841 6.06091309 287.41784668 C11.40383652 287.42373889 16.74648323 287.41557098 22.08935547 287.39648438 C28.25331497 287.37471788 34.41674513 287.38177023 40.58069181 287.40379 C46.52717178 287.42417702 52.47348828 287.42195837 58.41999817 287.41026306 C60.94293797 287.40759779 63.46589132 287.41085848 65.98881531 287.42018127 C69.51699429 287.43035805 73.04416183 287.41482808 76.57226562 287.39257812 C77.61143631 287.40067505 78.65060699 287.40877197 79.7212677 287.41711426 C85.95877181 287.34436876 89.74429984 286.59797211 94.8125 282.875 C98.37498683 278.60173935 99.47285982 274.56393353 99.19921875 269.015625 C98.35905266 264.36500867 95.64713529 261.62820746 92.25 258.5625 C88.83080903 256.19536779 86.25647142 255.74921653 82.20219421 255.73455811 C81.25594177 255.72884796 80.30968933 255.72313782 79.33476257 255.71725464 C77.78013054 255.71557785 77.78013054 255.71557785 76.1940918 255.71386719 C75.101138 255.70890228 74.0081842 255.70393738 72.8821106 255.69882202 C69.25864029 255.68419123 65.63521377 255.67739685 62.01171875 255.671875 C59.49689228 255.66612432 56.98206582 255.66036658 54.46723938 255.65460205 C49.86517715 255.64543363 45.2631275 255.63913437 40.66105717 255.6361053 C33.89412867 255.63162652 27.12740236 255.61408575 20.36053532 255.5851047 C14.49418792 255.56085518 8.62790781 255.5531596 2.76151466 255.55142975 C0.26843986 255.5484015 -2.22463406 255.5403672 -4.71767616 255.52724457 C-8.20557609 255.51019588 -11.69298355 255.51206175 -15.1809082 255.51855469 C-16.21125687 255.5093399 -17.24160553 255.50012512 -18.30317688 255.4906311 C-26.63882569 255.53925572 -31.56612307 257.45056922 -37.1875 263.875 Z " fill="#000000" transform="translate(151.1875,27.125)"/>
<path d="M0 0 C1.00256836 0.00757324 2.00513672 0.01514648 3.03808594 0.02294922 C19.79000348 0.39299319 34.55891949 6.77993232 46.6875 18.4375 C60.34249032 34.03689023 65.91994572 50.83211063 64.84716797 71.32617188 C63.65014057 87.15475429 55.81566596 101.6916656 44.44921875 112.58203125 C35.72550117 120.04930505 25.38644385 124.53952593 14.6875 128.4375 C15.77804687 128.6334375 16.86859375 128.829375 17.9921875 129.03125 C45.40306453 134.31826904 69.27607872 149.00283644 85.14404297 172.34838867 C93.78109734 185.48082592 101.29197539 200.61786665 98.03515625 216.6484375 C95.07409384 227.55226387 89.48697067 235.64610112 79.6875 241.4375 C69.76618018 246.3744247 60.21649623 246.58878091 49.32739258 246.61450195 C47.49890778 246.62435875 47.49890778 246.62435875 45.63348389 246.63441467 C41.6163304 246.65405714 37.59921664 246.6658012 33.58203125 246.67578125 C32.19054331 246.67983461 30.79905555 246.68395169 29.40756798 246.68813133 C22.8673905 246.70714706 16.32722406 246.72138625 9.78702432 246.7297433 C2.27420416 246.73950588 -5.23832063 246.76581482 -12.75103682 246.80624419 C-18.58320254 246.83653752 -24.41528417 246.85122455 -30.24752694 246.85452431 C-33.71936843 246.85685945 -37.1908931 246.86561705 -40.66264915 246.89098549 C-44.54366586 246.91889067 -48.42430228 246.9143949 -52.30541992 246.9074707 C-53.43365677 246.92028076 -54.56189362 246.93309082 -55.72431946 246.94628906 C-68.57730859 246.86325973 -78.92734322 243.48834927 -88.2109375 234.625 C-95.6415298 226.84952789 -98.7365076 217.1636135 -98.58203125 206.546875 C-97.25195665 191.20282596 -88.4005675 175.7191938 -78.3125 164.4375 C-77.63703125 163.62023437 -76.9615625 162.80296875 -76.265625 161.9609375 C-60.3378794 143.18479944 -38.22715776 132.69729841 -14.3125 128.4375 C-15.26769531 128.08558594 -16.22289062 127.73367188 -17.20703125 127.37109375 C-36.40756545 120.1222687 -50.45377131 109.15783232 -59.3125 90.4375 C-65.63835872 74.84352268 -66.71111757 57.3148453 -60.53027344 41.42675781 C-56.56838945 32.1033874 -51.68389007 24.48156369 -44.3125 17.4375 C-43.70019531 16.80585938 -43.08789062 16.17421875 -42.45703125 15.5234375 C-31.19345479 4.62010336 -15.36490895 -0.16423299 0 0 Z " fill="#000000" transform="translate(387.3125,239.5625)"/>
</svg>
