<?xml version="1.0" standalone="no"?>
<!DOCTYPE svg PUBLIC "-//W3C//DTD SVG 20010904//EN"
 "http://www.w3.org/TR/2001/REC-SVG-20010904/DTD/svg10.dtd">
<svg version="1.0" xmlns="http://www.w3.org/2000/svg"
 width="512.000000pt" height="512.000000pt" viewBox="0 0 512.000000 512.000000"
 preserveAspectRatio="xMidYMid meet">

<g transform="translate(0.000000,512.000000) scale(0.100000,-0.100000)"
fill="#000000" stroke="none">
<path d="M1360 4828 c-65 -45 -75 -68 -78 -189 l-4 -109 -156 0 c-122 0 -176
-5 -239 -20 -298 -71 -523 -297 -593 -595 -20 -82 -20 -115 -18 -1492 l3
-1408 24 -70 c96 -284 298 -476 583 -552 55 -15 148 -17 765 -20 476 -3 714
-1 741 7 53 14 108 74 117 129 9 53 -25 126 -74 158 l-34 23 -671 0 c-421 0
-695 4 -736 11 -183 29 -349 183 -389 360 -7 29 -11 520 -11 1395 0 1477 -3
1389 57 1508 32 64 125 157 189 189 92 46 147 57 301 57 l143 0 0 -95 c0 -76
4 -104 20 -134 57 -113 223 -113 280 0 16 30 20 58 20 134 l0 95 745 0 745 0
0 -82 c0 -110 12 -149 59 -191 54 -49 106 -56 169 -25 76 37 92 71 92 194 l0
104 143 0 c78 0 162 -5 186 -11 177 -40 331 -206 360 -389 6 -36 11 -198 11
-361 0 -290 0 -297 22 -329 33 -48 70 -72 120 -77 58 -7 118 23 149 74 24 38
24 38 24 378 0 368 -3 401 -56 533 -90 227 -272 394 -514 472 -58 19 -102 24
-255 29 l-185 6 -5 110 c-4 93 -8 115 -27 141 -46 64 -149 84 -214 41 -56 -37
-79 -95 -79 -204 l0 -93 -744 0 -744 0 -4 109 c-2 92 -6 114 -24 138 -35 48
-82 73 -134 73 -32 0 -57 -7 -80 -22z"/>
<path d="M1227 3136 c-49 -18 -64 -32 -89 -80 -37 -73 -13 -153 62 -204 l34
-23 385 3 c434 3 415 0 462 81 41 73 10 174 -64 215 -28 15 -72 17 -392 19
-284 2 -368 0 -398 -11z"/>
<path d="M3755 2705 c-229 -50 -410 -223 -481 -461 -24 -80 -24 -247 0 -329
40 -133 117 -252 215 -331 71 -57 183 -112 263 -128 69 -14 65 -16 -47 -31
-78 -11 -202 -53 -295 -101 -211 -108 -381 -294 -476 -519 -25 -61 -29 -82
-29 -165 0 -83 4 -103 28 -155 36 -78 104 -146 181 -182 l61 -28 700 0 700 0
66 32 c79 39 140 102 177 181 23 49 27 70 27 152 0 82 -4 104 -29 164 -106
255 -297 448 -552 558 -63 27 -194 61 -279 74 l-50 7 63 13 c179 37 348 169
430 335 95 193 95 388 0 579 -125 249 -412 392 -673 335z m253 -335 c108 -47
185 -167 185 -290 0 -122 -76 -242 -185 -291 -80 -35 -193 -34 -270 4 -105 51
-168 146 -176 262 -5 85 8 138 51 201 89 132 248 178 395 114z m77 -1284 c182
-58 335 -191 416 -361 34 -71 37 -110 10 -125 -30 -15 -1263 -14 -1279 2 -19
19 -14 59 17 123 91 192 277 336 491 381 97 20 247 12 345 -20z"/>
<path d="M1200 2268 c-48 -33 -72 -70 -77 -120 -7 -58 23 -118 74 -149 l38
-24 545 -3 c300 -2 564 0 588 3 57 8 118 62 132 116 19 69 -17 151 -80 184
-25 13 -116 15 -608 15 l-579 0 -33 -22z"/>
</g>
</svg>
