<?xml version="1.0" encoding="UTF-8"?>
<svg version="1.1" xmlns="http://www.w3.org/2000/svg" width="512" height="512">
<path d="M0 0 C1.26921799 -0.00671722 2.53843597 -0.01343445 3.84611511 -0.02035522 C7.31335739 -0.03795103 10.78050081 -0.04270798 14.24778342 -0.0439868 C16.41968852 -0.04541305 18.59156887 -0.04969167 20.76346779 -0.05498123 C28.35697638 -0.07346303 35.95041497 -0.08165451 43.54394531 -0.08007812 C50.59502695 -0.07887848 57.64580162 -0.0999505 64.69680566 -0.13156545 C70.77183317 -0.15782256 76.84676104 -0.16844143 82.92184478 -0.16716731 C86.54063942 -0.16666026 90.15916125 -0.17219856 93.77789879 -0.19352341 C97.8221936 -0.21670678 101.86581268 -0.20732766 105.91015625 -0.1953125 C107.09031311 -0.20655151 108.27046997 -0.21779053 109.48638916 -0.22937012 C123.81629149 -0.12175325 134.61119446 4.93789632 145.02856445 14.60302734 C155.09274781 25.23688146 157.73696491 37.11270665 157.68261719 51.35253906 C157.68948044 52.62219513 157.69634369 53.8918512 157.70341492 55.19998169 C157.72122771 58.65470506 157.72020045 62.10917279 157.71447253 65.56392813 C157.7113629 68.46120977 157.71749281 71.35844356 157.72351128 74.25571835 C157.73751631 81.09792896 157.7360293 87.9400146 157.72460938 94.78222656 C157.713136 101.81123323 157.72719963 108.83985799 157.75400585 115.86881435 C157.77624932 121.93117621 157.78278076 127.99341895 157.77692944 134.05581868 C157.77357874 137.66449141 157.77584755 141.27291955 157.79318047 144.88155746 C157.81169395 148.91118846 157.79737424 152.9400892 157.78027344 156.96972656 C157.79477539 158.73289215 157.79477539 158.73289215 157.80957031 160.53167725 C157.68280927 174.87443254 152.61416981 185.74978331 142.84106445 196.10302734 C132.38939448 205.95349507 120.07811939 208.90541358 105.98950195 208.80810547 C104.71955383 208.81511475 103.44960571 208.82212402 102.14117432 208.8293457 C98.69474877 208.84739692 95.24880853 208.84058823 91.80237579 208.82782936 C88.17251914 208.81760606 84.54270032 208.82712064 80.9128418 208.83337402 C74.82048181 208.84062358 68.72831664 208.83113398 62.63598633 208.81201172 C55.62169212 208.790248 48.6078632 208.7973013 41.59358025 208.81931734 C35.53965753 208.83754866 29.48587378 208.83999216 23.43193245 208.82956266 C19.83001215 208.82336992 16.22830957 208.82237418 12.62640381 208.83570862 C8.60653743 208.84955453 4.58745605 208.83029228 0.56762695 208.80810547 C-0.60467468 208.81620239 -1.77697632 208.82429932 -2.98480225 208.8326416 C-17.31501634 208.68700142 -28.18894271 203.61834386 -38.53393555 193.85302734 C-48.37243235 183.41405891 -51.33342963 171.10544716 -51.25488281 157.03320312 C-51.26349838 155.76646759 -51.27211395 154.49973206 -51.2809906 153.1946106 C-51.30327248 149.7563341 -51.30059508 146.3185225 -51.29166913 142.88020182 C-51.28651584 139.99293696 -51.29388677 137.10575619 -51.3011412 134.21850002 C-51.31807353 127.39819431 -51.3146429 120.57811269 -51.29785156 113.7578125 C-51.28094268 106.75939113 -51.29676246 99.76159413 -51.32907444 92.76324093 C-51.35590521 86.71947165 -51.36301009 80.67589511 -51.35455936 74.63207233 C-51.34966842 71.03784943 -51.3516342 67.44400148 -51.37234688 63.84982681 C-51.39438115 59.83504483 -51.37515444 55.82141963 -51.35253906 51.80664062 C-51.36423126 50.64152954 -51.37592346 49.47641846 -51.38796997 48.27600098 C-51.22802288 34.21300442 -46.34289568 23.0964921 -36.6237793 13.14208984 C-25.74878515 2.82331233 -14.59138774 -0.01111104 0 0 Z " fill="#000000" transform="translate(322.721435546875,271.70947265625)"/>
<path d="M0 0 C1.26921799 -0.00671722 2.53843597 -0.01343445 3.84611511 -0.02035522 C7.31335739 -0.03795103 10.78050081 -0.04270798 14.24778342 -0.0439868 C16.41968852 -0.04541305 18.59156887 -0.04969167 20.76346779 -0.05498123 C28.35697638 -0.07346303 35.95041497 -0.08165451 43.54394531 -0.08007812 C50.59502695 -0.07887848 57.64580162 -0.0999505 64.69680566 -0.13156545 C70.77183317 -0.15782256 76.84676104 -0.16844143 82.92184478 -0.16716731 C86.54063942 -0.16666026 90.15916125 -0.17219856 93.77789879 -0.19352341 C97.8221936 -0.21670678 101.86581268 -0.20732766 105.91015625 -0.1953125 C107.09031311 -0.20655151 108.27046997 -0.21779053 109.48638916 -0.22937012 C123.81629149 -0.12175325 134.61119446 4.93789632 145.02856445 14.60302734 C155.09274781 25.23688146 157.73696491 37.11270665 157.68261719 51.35253906 C157.68948044 52.62219513 157.69634369 53.8918512 157.70341492 55.19998169 C157.72122771 58.65470506 157.72020045 62.10917279 157.71447253 65.56392813 C157.7113629 68.46120977 157.71749281 71.35844356 157.72351128 74.25571835 C157.73751631 81.09792896 157.7360293 87.9400146 157.72460938 94.78222656 C157.713136 101.81123323 157.72719963 108.83985799 157.75400585 115.86881435 C157.77624932 121.93117621 157.78278076 127.99341895 157.77692944 134.05581868 C157.77357874 137.66449141 157.77584755 141.27291955 157.79318047 144.88155746 C157.81169395 148.91118846 157.79737424 152.9400892 157.78027344 156.96972656 C157.79477539 158.73289215 157.79477539 158.73289215 157.80957031 160.53167725 C157.68280927 174.87443254 152.61416981 185.74978331 142.84106445 196.10302734 C132.38939448 205.95349507 120.07811939 208.90541358 105.98950195 208.80810547 C104.71955383 208.81511475 103.44960571 208.82212402 102.14117432 208.8293457 C98.69474877 208.84739692 95.24880853 208.84058823 91.80237579 208.82782936 C88.17251914 208.81760606 84.54270032 208.82712064 80.9128418 208.83337402 C74.82048181 208.84062358 68.72831664 208.83113398 62.63598633 208.81201172 C55.62169212 208.790248 48.6078632 208.7973013 41.59358025 208.81931734 C35.53965753 208.83754866 29.48587378 208.83999216 23.43193245 208.82956266 C19.83001215 208.82336992 16.22830957 208.82237418 12.62640381 208.83570862 C8.60653743 208.84955453 4.58745605 208.83029228 0.56762695 208.80810547 C-0.60467468 208.81620239 -1.77697632 208.82429932 -2.98480225 208.8326416 C-17.31501634 208.68700142 -28.18894271 203.61834386 -38.53393555 193.85302734 C-48.37243235 183.41405891 -51.33342963 171.10544716 -51.25488281 157.03320312 C-51.26349838 155.76646759 -51.27211395 154.49973206 -51.2809906 153.1946106 C-51.30327248 149.7563341 -51.30059508 146.3185225 -51.29166913 142.88020182 C-51.28651584 139.99293696 -51.29388677 137.10575619 -51.3011412 134.21850002 C-51.31807353 127.39819431 -51.3146429 120.57811269 -51.29785156 113.7578125 C-51.28094268 106.75939113 -51.29676246 99.76159413 -51.32907444 92.76324093 C-51.35590521 86.71947165 -51.36301009 80.67589511 -51.35455936 74.63207233 C-51.34966842 71.03784943 -51.3516342 67.44400148 -51.37234688 63.84982681 C-51.39438115 59.83504483 -51.37515444 55.82141963 -51.35253906 51.80664062 C-51.36423126 50.64152954 -51.37592346 49.47641846 -51.38796997 48.27600098 C-51.22802288 34.21300442 -46.34289568 23.0964921 -36.6237793 13.14208984 C-25.74878515 2.82331233 -14.59138774 -0.01111104 0 0 Z " fill="#000000" transform="translate(82.721435546875,271.70947265625)"/>
<path d="M0 0 C1.26921799 -0.00671722 2.53843597 -0.01343445 3.84611511 -0.02035522 C7.31335739 -0.03795103 10.78050081 -0.04270798 14.24778342 -0.0439868 C16.41968852 -0.04541305 18.59156887 -0.04969167 20.76346779 -0.05498123 C28.35697638 -0.07346303 35.95041497 -0.08165451 43.54394531 -0.08007812 C50.59502695 -0.07887848 57.64580162 -0.0999505 64.69680566 -0.13156545 C70.77183317 -0.15782256 76.84676104 -0.16844143 82.92184478 -0.16716731 C86.54063942 -0.16666026 90.15916125 -0.17219856 93.77789879 -0.19352341 C97.8221936 -0.21670678 101.86581268 -0.20732766 105.91015625 -0.1953125 C107.09031311 -0.20655151 108.27046997 -0.21779053 109.48638916 -0.22937012 C123.81629149 -0.12175325 134.61119446 4.93789632 145.02856445 14.60302734 C155.09274781 25.23688146 157.73696491 37.11270665 157.68261719 51.35253906 C157.68948044 52.62219513 157.69634369 53.8918512 157.70341492 55.19998169 C157.72122771 58.65470506 157.72020045 62.10917279 157.71447253 65.56392813 C157.7113629 68.46120977 157.71749281 71.35844356 157.72351128 74.25571835 C157.73751631 81.09792896 157.7360293 87.9400146 157.72460938 94.78222656 C157.713136 101.81123323 157.72719963 108.83985799 157.75400585 115.86881435 C157.77624932 121.93117621 157.78278076 127.99341895 157.77692944 134.05581868 C157.77357874 137.66449141 157.77584755 141.27291955 157.79318047 144.88155746 C157.81169395 148.91118846 157.79737424 152.9400892 157.78027344 156.96972656 C157.79477539 158.73289215 157.79477539 158.73289215 157.80957031 160.53167725 C157.68280927 174.87443254 152.61416981 185.74978331 142.84106445 196.10302734 C132.38939448 205.95349507 120.07811939 208.90541358 105.98950195 208.80810547 C104.71955383 208.81511475 103.44960571 208.82212402 102.14117432 208.8293457 C98.69474877 208.84739692 95.24880853 208.84058823 91.80237579 208.82782936 C88.17251914 208.81760606 84.54270032 208.82712064 80.9128418 208.83337402 C74.82048181 208.84062358 68.72831664 208.83113398 62.63598633 208.81201172 C55.62169212 208.790248 48.6078632 208.7973013 41.59358025 208.81931734 C35.53965753 208.83754866 29.48587378 208.83999216 23.43193245 208.82956266 C19.83001215 208.82336992 16.22830957 208.82237418 12.62640381 208.83570862 C8.60653743 208.84955453 4.58745605 208.83029228 0.56762695 208.80810547 C-0.60467468 208.81620239 -1.77697632 208.82429932 -2.98480225 208.8326416 C-17.31501634 208.68700142 -28.18894271 203.61834386 -38.53393555 193.85302734 C-48.37243235 183.41405891 -51.33342963 171.10544716 -51.25488281 157.03320312 C-51.26349838 155.76646759 -51.27211395 154.49973206 -51.2809906 153.1946106 C-51.30327248 149.7563341 -51.30059508 146.3185225 -51.29166913 142.88020182 C-51.28651584 139.99293696 -51.29388677 137.10575619 -51.3011412 134.21850002 C-51.31807353 127.39819431 -51.3146429 120.57811269 -51.29785156 113.7578125 C-51.28094268 106.75939113 -51.29676246 99.76159413 -51.32907444 92.76324093 C-51.35590521 86.71947165 -51.36301009 80.67589511 -51.35455936 74.63207233 C-51.34966842 71.03784943 -51.3516342 67.44400148 -51.37234688 63.84982681 C-51.39438115 59.83504483 -51.37515444 55.82141963 -51.35253906 51.80664062 C-51.36423126 50.64152954 -51.37592346 49.47641846 -51.38796997 48.27600098 C-51.22802288 34.21300442 -46.34289568 23.0964921 -36.6237793 13.14208984 C-25.74878515 2.82331233 -14.59138774 -0.01111104 0 0 Z " fill="#000000" transform="translate(82.721435546875,31.70947265625)"/>
<path d="M0 0 C2.78151446 2.27972493 5.307195 4.75798668 7.83300781 7.31542969 C8.54659454 8.02200714 9.26018127 8.72858459 9.99539185 9.45657349 C12.32472091 11.76846167 14.63930092 14.09447687 16.953125 16.421875 C18.58297437 18.0490255 20.21341677 19.67558219 21.84442139 21.30157471 C25.24982392 24.70110096 28.64794066 28.10770207 32.04101562 31.51953125 C36.37369634 35.87499948 40.72409012 40.21226024 45.08012772 44.54435349 C48.44699419 47.89671179 51.80420907 51.25860598 55.15865326 54.6233902 C56.75838074 56.22577107 58.36104357 57.82522737 59.96677399 59.42159271 C62.21590385 61.6604747 64.45166847 63.91193987 66.68457031 66.16699219 C67.33924286 66.81356781 67.99391541 67.46014343 68.66842651 68.12631226 C78.74223744 78.38444738 84.3324088 90.61109864 84.5 105 C84.31803735 120.62279295 77.66887326 132.98455761 66.68457031 143.83300781 C65.97799286 144.54659454 65.27141541 145.26018127 64.54342651 145.99539185 C62.23153833 148.32472091 59.90552313 150.63930092 57.578125 152.953125 C55.9509745 154.58297437 54.32441781 156.21341677 52.69842529 157.84442139 C49.29889904 161.24982392 45.89229793 164.64794066 42.48046875 168.04101562 C38.12500052 172.37369634 33.78773976 176.72409012 29.45564651 181.08012772 C26.10328821 184.44699419 22.74139402 187.80420907 19.3766098 191.15865326 C17.77422893 192.75838074 16.17477263 194.36104357 14.57840729 195.96677399 C12.3395253 198.21590385 10.08806013 200.45166847 7.83300781 202.68457031 C7.18643219 203.33924286 6.53985657 203.99391541 5.87368774 204.66842651 C-4.27727844 214.63699418 -16.68236009 220.30845967 -31 220.5 C-46.59327125 220.29139436 -59.07196586 213.58037042 -69.83300781 202.68457031 C-70.54659454 201.97799286 -71.26018127 201.27141541 -71.99539185 200.54342651 C-74.32472091 198.23153833 -76.63930092 195.90552313 -78.953125 193.578125 C-80.58297437 191.9509745 -82.21341677 190.32441781 -83.84442139 188.69842529 C-87.24982392 185.29889904 -90.64794066 181.89229793 -94.04101562 178.48046875 C-98.37369634 174.12500052 -102.72409012 169.78773976 -107.08012772 165.45564651 C-110.44699419 162.10328821 -113.80420907 158.74139402 -117.15865326 155.3766098 C-118.75838074 153.77422893 -120.36104357 152.17477263 -121.96677399 150.57840729 C-124.21590385 148.3395253 -126.45166847 146.08806013 -128.68457031 143.83300781 C-129.66657913 142.86314438 -129.66657913 142.86314438 -130.66842651 141.87368774 C-140.74223744 131.61555262 -146.3324088 119.38890136 -146.5 105 C-146.31803735 89.37720705 -139.66887326 77.01544239 -128.68457031 66.16699219 C-127.97799286 65.45340546 -127.27141541 64.73981873 -126.54342651 64.00460815 C-124.23153833 61.67527909 -121.90552313 59.36069908 -119.578125 57.046875 C-117.9509745 55.41702563 -116.32441781 53.78658323 -114.69842529 52.15557861 C-111.29889904 48.75017608 -107.89229793 45.35205934 -104.48046875 41.95898438 C-100.12500052 37.62630366 -95.78773976 33.27590988 -91.45564651 28.91987228 C-88.10328821 25.55300581 -84.74139402 22.19579093 -81.3766098 18.84134674 C-79.77422893 17.24161926 -78.17477263 15.63895643 -76.57840729 14.03322601 C-74.3395253 11.78409615 -72.08806013 9.54833153 -69.83300781 7.31542969 C-69.18643219 6.66075714 -68.53985657 6.00608459 -67.87368774 5.33157349 C-48.28750824 -13.90267004 -22.28968992 -14.83393742 0 0 Z " fill="#000000" transform="translate(407,31)"/>
</svg>
