<?xml version="1.0" encoding="UTF-8"?>
<svg version="1.1" xmlns="http://www.w3.org/2000/svg" width="512" height="512">
<path d="M0 0 C1.92736244 0.44832939 1.92736244 0.44832939 3.8936615 0.90571594 C6.59255752 1.53475334 9.28888136 2.17355314 11.98364258 2.82006836 C15.40066172 3.63931083 18.82237797 4.4364104 22.24623966 5.22650433 C25.56255243 5.9944078 28.87483317 6.7790147 32.1875 7.5625 C34.00206444 7.98313972 34.00206444 7.98313972 35.85328674 8.41227722 C51.66541539 12.23315043 63.56285696 17.72491904 72.7734375 31.58203125 C76.14455396 38.38727569 77.62417446 45.50209266 78.69140625 52.96875 C78.84071594 53.96736053 78.99002563 54.96597107 79.14385986 55.99484253 C79.6547214 59.42901734 80.15338308 62.86485856 80.65234375 66.30078125 C81.02305657 68.80729076 81.39433801 71.31371622 81.76611328 73.82006836 C84.48227705 92.19326539 87.09852533 110.58098541 89.72406387 128.96729851 C90.29360836 132.95467443 90.86420998 136.94189864 91.43502808 140.92909241 C91.72286703 142.9399584 92.01069905 144.95082539 92.29852891 146.96169269 C92.49128028 148.30823628 92.68405525 149.65477648 92.8768537 151.00131333 C94.03495936 159.09068732 95.18763744 167.18079679 96.3318119 175.27215338 C97.15237255 181.07281724 97.97992553 186.87246773 98.80971527 192.67181778 C99.15429337 195.08908142 99.49641372 197.50669685 99.83591461 199.9246788 C100.30717344 203.27894731 100.78713612 206.63186624 101.26904297 209.98461914 C101.40309855 210.95431231 101.53715412 211.92400549 101.67527199 212.92308331 C103.77133379 228.29139145 103.77133379 228.29139145 113.02734375 240.11328125 C120.4317699 244.55704055 127.62189769 244.76424095 136.08984375 244.86328125 C137.33701172 244.89292969 138.58417969 244.92257812 139.86914062 244.953125 C142.92193802 245.02330425 145.97399461 245.07625935 149.02734375 245.11328125 C148.942034 244.55512222 148.85672424 243.9969632 148.76882935 243.42189026 C146.38923672 227.8445823 144.03010792 212.26424479 141.68112183 196.68229675 C140.05746318 185.91560339 138.42550492 175.15020324 136.78710938 164.38574219 C134.93669817 152.22680664 133.09659768 140.06634746 131.26589012 127.90442944 C130.23435994 121.05368102 129.19837474 114.20366605 128.15142822 107.35525513 C127.14728441 100.78675791 126.15626506 94.21636772 125.17333221 87.64465714 C124.80538012 85.19879849 124.43316017 82.75357737 124.05628204 80.30907822 C118.34711308 43.22714154 118.34711308 43.22714154 124.4140625 33.1953125 C129.19243939 27.02854523 134.40273257 23.11483419 142.02734375 21.11328125 C146.08892347 20.68949699 150.12326537 20.70382303 154.2040863 20.7256012 C155.41738666 20.72021566 156.63068702 20.71483012 157.88075405 20.70928138 C161.23174446 20.69748462 164.58223507 20.69905665 167.93320525 20.7064482 C171.55360743 20.71118911 175.1739569 20.6986619 178.79434204 20.68843079 C185.88030765 20.67125574 192.96618454 20.67040004 200.05216556 20.67564369 C205.81277652 20.67968889 211.57336131 20.67823768 217.33397102 20.67289543 C218.15457089 20.67214701 218.97517075 20.67139859 219.82063727 20.67062749 C221.48780243 20.66909597 223.15496757 20.66755763 224.82213271 20.66601252 C240.44785713 20.65229226 256.07353144 20.65772192 271.6992547 20.66919773 C285.98697257 20.67913053 300.27456094 20.66618781 314.56225883 20.64226354 C329.24256013 20.61786756 343.92280113 20.60826584 358.60312229 20.61491627 C366.84115526 20.61840726 375.07908863 20.61618428 383.31710625 20.59866524 C390.32958349 20.58393705 397.34189099 20.58331586 404.35436492 20.60073615 C407.93023733 20.60924336 411.50580661 20.61140286 415.08166313 20.59608459 C418.96246943 20.57966613 422.842809 20.59439646 426.72361755 20.61207581 C428.40952622 20.5976683 428.40952622 20.5976683 430.12949365 20.58296973 C439.41394207 20.66995354 446.60185359 23.08710925 453.5234375 29.3984375 C458.8008731 35.41608485 460.43288881 42.52477348 460.35140991 50.3319397 C459.66304319 58.36409485 457.34404761 66.10087971 455.296875 73.875 C454.79211542 75.83494082 454.28863293 77.79521092 453.78633118 79.75578308 C452.43442087 85.01770354 451.06486211 90.27488056 449.69187164 95.53133392 C448.26380251 101.01119772 446.85226921 106.49531742 445.43896484 111.97900391 C442.83436221 122.07482386 440.21552356 132.16688555 437.59011459 142.25731277 C434.8979696 152.60563204 432.21850071 162.95721009 429.5412426 173.30938911 C426.53072261 184.94961949 423.51800799 196.58926855 420.49145508 208.2253418 C420.17576616 209.43927187 420.17576616 209.43927187 419.85369968 210.67772579 C418.88013871 214.42096468 417.90593313 218.16403358 416.93049622 221.90678406 C414.91913194 229.63161919 412.94532509 237.36469114 411.02734375 245.11328125 C412.65929687 245.24283203 412.65929687 245.24283203 414.32421875 245.375 C431.73971004 246.95569592 445.38466163 252.86477857 456.98828125 266.375 C466.63994384 279.33633233 469.15349823 293.74278234 469.265625 309.4609375 C469.27369675 310.54982773 469.28176849 311.63871796 469.29008484 312.76060486 C469.3038756 315.06100904 469.31461999 317.36143325 469.32250977 319.66186523 C469.33400424 321.99200526 469.3544155 324.32211947 469.3840332 326.65209961 C469.65799018 348.23960337 467.72849382 364.52680472 452.3671875 380.859375 C444.04831965 388.87270847 431.72185216 395.15806223 419.96606445 395.10375977 C419.22316162 395.08369873 418.48025879 395.0636377 417.71484375 395.04296875 C410.79891781 394.88570929 410.79891781 394.88570929 404.02734375 396.11328125 C401.54052235 398.56346439 400.68305967 400.68554692 399.42578125 403.92578125 C395.44320489 413.00338547 386.5258344 420.41831089 378.02734375 425.11328125 C377.24875 425.561875 376.47015625 426.01046875 375.66796875 426.47265625 C362.00482828 433.86989791 344.95432625 435.73769789 329.83984375 431.86328125 C328.22176527 431.31972767 326.61551864 430.73884419 325.02734375 430.11328125 C324.27839844 429.83484375 323.52945312 429.55640625 322.7578125 429.26953125 C306.50855807 422.66738234 295.71832763 411.6934064 288.02734375 396.11328125 C275.25817519 395.81175544 262.48985615 395.58093134 249.71784973 395.43972301 C243.78669303 395.37193876 237.85797534 395.28005329 231.92822266 395.13256836 C226.20269947 394.9910582 220.47951753 394.91353867 214.75238037 394.87987709 C212.57040534 394.85589913 210.38855535 394.80906853 208.20758057 394.73879051 C197.28472916 393.8792888 197.28472916 393.8792888 187.36303711 397.37274551 C184.29686184 400.85898041 182.77549403 404.83922187 181.02734375 409.11328125 C171.61910058 421.99787201 156.73984666 430.61824498 141.02734375 433.11328125 C122.64772552 434.89266924 106.14630102 431.7787073 91.48046875 420.08203125 C84.09319101 413.72449525 76.70373763 406.30426594 73.02734375 397.11328125 C73.02734375 396.45328125 73.02734375 395.79328125 73.02734375 395.11328125 C70.71734375 395.11328125 68.40734375 395.11328125 66.02734375 395.11328125 C66.02734375 378.61328125 66.02734375 362.11328125 66.02734375 345.11328125 C68.33734375 344.78328125 70.64734375 344.45328125 73.02734375 344.11328125 C74.8038294 342.01331899 74.8038294 342.01331899 75.83984375 339.23828125 C82.70618717 325.21418461 95.41168302 315.22876251 110.02734375 310.11328125 C127.00372108 305.53847827 144.23801094 305.5876571 160.02734375 314.11328125 C160.67832031 314.46003906 161.32929688 314.80679687 162 315.1640625 C172.85754711 321.4454665 183.17048816 331.39968836 188.02734375 343.11328125 C188.02734375 343.77328125 188.02734375 344.43328125 188.02734375 345.11328125 C200.94498376 345.26069332 213.86127123 345.34341745 226.77980137 345.34387589 C232.77883454 345.34611482 238.77606173 345.3705157 244.7746582 345.44580078 C250.56549946 345.51765923 256.35380774 345.53099295 262.14500237 345.50399017 C264.35264927 345.50393443 266.56040087 345.5248636 268.76764107 345.56723785 C280.6589009 346.32232604 280.6589009 346.32232604 290.84103394 341.5177002 C292.63875752 338.43055633 293.80715606 335.46026763 295.02734375 332.11328125 C304.8821508 318.49819522 320.22199914 310.72177737 336.40234375 307.42578125 C354.95842743 305.82611886 371.21485356 309.76118793 386.02734375 321.11328125 C387.28611328 322.06654297 387.28611328 322.06654297 388.5703125 323.0390625 C395.36158676 328.7722368 399.99196417 336.29473331 404.02734375 344.11328125 C408.64734375 344.11328125 413.26734375 344.11328125 418.02734375 344.11328125 C418.05209598 338.22339178 418.07022857 332.33353271 418.08227539 326.44360352 C418.08729853 324.44066846 418.0941182 322.43773706 418.1027832 320.43481445 C418.1149372 317.55288794 418.12059232 314.67101 418.125 311.7890625 C418.13016129 310.8961702 418.13532257 310.00327789 418.14064026 309.08332825 C418.14071579 308.24283432 418.14079132 307.40234039 418.14086914 306.53637695 C418.14308975 305.80135452 418.14531036 305.06633209 418.14759827 304.30903625 C418.01234 301.83932424 417.53148216 299.53195987 417.02734375 297.11328125 C416.32055487 297.11268416 415.61376599 297.11208707 414.88555926 297.11147189 C372.98226626 297.07556687 331.07904596 297.01891086 289.17581956 296.9353603 C284.1428481 296.92534301 279.10987631 296.91549885 274.0769043 296.90576172 C273.07494315 296.90382035 272.072982 296.90187897 271.04065839 296.89987877 C254.82357804 296.86886972 238.60651183 296.85188117 222.38940742 296.84008703 C205.74536132 296.82766981 189.1013894 296.80015548 172.45739013 296.75866818 C162.18968172 296.73354918 151.92209633 296.72016281 141.65435676 296.72185168 C134.61044953 296.72188146 127.56666748 296.70722793 120.52280905 296.68111697 C116.46070853 296.66648995 112.39886472 296.65825175 108.3367424 296.66747856 C104.61230213 296.67579495 100.88837655 296.66553075 97.16401241 296.64094463 C95.18982122 296.63261676 93.21557692 296.64376659 91.24140471 296.6557796 C81.91611287 296.56624668 73.26661085 295.32048059 66.08984375 288.92578125 C59.04409302 280.94729485 57.9320986 271.12818283 56.5390625 260.953125 C56.31791056 259.41138836 56.09556308 257.86982282 55.87213135 256.32841492 C55.3913942 252.99409953 54.91902683 249.65874275 54.45309448 246.32232666 C53.70629598 240.97577969 52.94039916 235.63207039 52.17211914 230.28857422 C51.05283263 222.48987735 49.94229067 214.68997861 48.83789062 206.88916016 C46.06887896 187.33312576 43.2742801 167.78075492 40.46770191 148.2300787 C39.47024943 141.27801582 38.4798688 134.32499283 37.49518776 127.37110996 C36.87465751 122.99701125 36.24897921 118.62365918 35.6220932 114.2504673 C35.33155543 112.21585994 35.0431719 110.18094357 34.75714874 108.14569664 C31.58460986 81.39676666 31.58460986 81.39676666 15.9140625 60.48828125 C7.67600593 55.09511819 -1.57634586 53.13191757 -11.03515625 50.93359375 C-11.91381348 50.72484619 -12.7924707 50.51609863 -13.69775391 50.30102539 C-15.41803843 49.89512446 -17.14161807 49.50285658 -18.86865234 49.12670898 C-29.44128025 46.64805507 -36.15538679 41.22091239 -41.84765625 32.11328125 C-44.47168079 25.18397094 -44.44016513 15.3160597 -41.41015625 8.55078125 C-31.91250246 -6.90816587 -15.24793956 -3.66838321 0 0 Z M266.02734375 84.11328125 C265.69734375 95.00328125 265.36734375 105.89328125 265.02734375 117.11328125 C248.69234375 117.60828125 248.69234375 117.60828125 232.02734375 118.11328125 C232.02734375 132.30328125 232.02734375 146.49328125 232.02734375 161.11328125 C243.24734375 161.11328125 254.46734375 161.11328125 266.02734375 161.11328125 C266.02734375 172.33328125 266.02734375 183.55328125 266.02734375 195.11328125 C280.21734375 195.11328125 294.40734375 195.11328125 309.02734375 195.11328125 C309.02734375 183.89328125 309.02734375 172.67328125 309.02734375 161.11328125 C320.57734375 161.11328125 332.12734375 161.11328125 344.02734375 161.11328125 C344.02734375 146.92328125 344.02734375 132.73328125 344.02734375 118.11328125 C332.47734375 118.11328125 320.92734375 118.11328125 309.02734375 118.11328125 C309.02734375 106.89328125 309.02734375 95.67328125 309.02734375 84.11328125 C294.83734375 84.11328125 280.64734375 84.11328125 266.02734375 84.11328125 Z M107.02734375 353.11328125 C102.20478741 360.4613342 101.27284725 367.50992537 102.02734375 376.11328125 C104.2496135 384.77288672 108.47811857 390.69779337 116.08984375 395.42578125 C123.31719539 399.6686487 131.33313841 400.58791165 139.53125 398.46484375 C148.13878082 394.96195295 154.3153098 389.19957473 158.12109375 380.7265625 C161.06633016 372.23361784 160.15223718 365.17255132 156.71484375 356.98828125 C152.21283833 349.31819795 146.87460223 344.96405267 138.58984375 341.80078125 C125.29398486 339.23491374 116.06589224 343.05058069 107.02734375 353.11328125 Z M325.02734375 350.11328125 C319.02384263 357.30150875 316.2103457 364.63610389 317.02734375 374.11328125 C318.36959917 382.73581333 322.54857652 388.38810246 329.02734375 394.11328125 C336.40011053 398.93932376 343.40469313 399.83973167 352.02734375 399.11328125 C359.77823878 397.37237922 365.16573963 393.31098443 370.02734375 387.11328125 C374.74923021 379.55826291 375.94322 372.4438984 374.671875 363.65625 C372.77139279 355.5568795 367.70838616 349.22576384 360.80078125 344.6328125 C348.43231151 338.21695834 335.00103475 340.45454891 325.02734375 350.11328125 Z " fill="#000000" transform="translate(42.97265625,40.88671875)"/>
</svg>
